<?xml version="1.0" encoding="UTF-8"?>
<svg id="Sign" xmlns="http://www.w3.org/2000/svg" viewBox="0 0 743.12 1008.66">
  <defs>
    <style>
      .cls-1 {
        stroke: #231f20;
      }

      .cls-1, .cls-2 {
        fill: #fff;
        stroke-miterlimit: 10;
      }

      .cls-2 {
        stroke: #000;
      }
    </style>
  </defs>
  <path id="J_fourtjes" data-name="J fourtjes" class="cls-2" d="M623.91,455.97c-1.01-10.3-13.09-20.08-24.71-22.49-39.56-5.53-142.49,4.85-180.92-2.7.82-86.41,6.57-266.67,4.4-274.26-11.59-22.82-54.21-22.13-62.1,1.22-1.01,7.5,7.61,110.64,3.45,196.88-2.87,30.2-1.17,59.19-11.05,77.77-4.6.95-13.3,1.53-16.55.75-6.71-49,8.58-185.26,3.34-194.95-5.93-26.06-39.84-26.64-53.86-8.17-15.16,24.65-19.06,56.08-36.08,80.05-41.2,50.7-63.83,79.41-108.11,102.54-20.85,10.49-37.31,26.68-33.39,51.62.21,15.23,14.8,25.07,24.61,26.09,39.64,8.96,102.78-1.79,137.05,12.39-2.02,55.09,1.99,120.39-28.1,174.76-21.91,61.95-90.98,80.07-124.64,133.05-12.03,17.76-14.73,29.42,5.7,44.59,29.01,5.28,51.21-23.29,71.26-38.89,108.89-76.77,144.46-181.43,133.25-311.12-.96-4.61,6.02-4.54,9.65-4.8,6.31.13,11.64-.41,15.43.18,5.41,7.96,1.43,24.82,1.03,34.73-.79,29.54-4.71,83.86-.64,97.1,8.4,20.18,26.84,22.27,44.34,14.32,8.68-5.2,16.15-14.1,22.21-22.07,20.26-24.01,46.35-42.34,71.34-60.74,24.74-18.36,50.35-38.62,78.53-52.57,13.4-7.84,23.93-13.94,35.98-21.49,14.7-8.12,24.13-15.41,18.6-33.62l-.03-.14ZM280.3,406c-.02,2.09-.02,26.85,0,29.93.23,2.21-2.04,4.06-4.21,3.86-11.74-.24-21.4-.23-31.06-.17-47.39.33-48.21,2.23-20.58-24.3,3.8-3.66,9.01-8.69,13.37-13.04,63.38-62.78,46.77-63.65,42.5,3.63v.1ZM486.27,513.06c-22.79,16.11-52.31,42.14-76.32,55.68-.84.49-1.18.1-1.24-.73-2.25-18.5,2.29-47.55,6.86-65.94.18-.59.5-1.07.97-1.43,2.26-1.69,5.28-2.82,8.7-3.6,13.35-2.66,28.81-1.46,39.41-3.04,13.17-.68,29.4-3.94,42.85-4.21,3.36-.05,6.27.03,8.88.53.28.07.48.13.46.37-1.25,2.96-23.21,15.85-30.45,22.28l-.12.09Z"/>
  <g id="Trininities">
    <path class="cls-1" d="M474.26,369.88c0-6.39,4.65-11.62,11.45-11.62,4.98,0,8.3,3.82,8.3,8.8,0,6.39-4.65,11.62-11.45,11.62-4.98,0-8.3-3.82-8.3-8.8Z"/>
    <path class="cls-1" d="M516.29,370.87c0-6.39,4.65-11.62,11.45-11.62,4.98,0,8.3,3.82,8.3,8.8,0,6.39-4.65,11.62-11.45,11.62-4.98,0-8.3-3.82-8.3-8.8Z"/>
    <path class="cls-1" d="M495.6,330.53c0-6.26,5.09-11.39,12.54-11.39,5.45,0,9.08,3.74,9.08,8.62,0,6.26-5.09,11.39-12.54,11.39-5.45,0-9.08-3.74-9.08-8.62Z"/>
    <path class="cls-1" d="M476.19,269.98c0-6.39,4.65-11.62,11.45-11.62,4.98,0,8.3,3.82,8.3,8.8,0,6.39-4.65,11.62-11.45,11.62-4.98,0-8.3-3.82-8.3-8.8Z"/>
    <path class="cls-1" d="M517.93,270.76c0-6.37,4.68-11.58,11.54-11.58,5.02,0,8.36,3.8,8.36,8.77,0,6.37-4.68,11.58-11.54,11.58-5.02,0-8.36-3.8-8.36-8.77Z"/>
    <path class="cls-1" d="M497.53,230.54c0-6.26,5.09-11.39,12.54-11.39,5.45,0,9.08,3.74,9.08,8.62,0,6.26-5.09,11.39-12.54,11.39-5.45,0-9.08-3.74-9.08-8.62Z"/>
  </g>
</svg>